<svg xmlns="http://www.w3.org/2000/svg" viewBox="0 0 1251 400">
  <defs>
    <linearGradient id="a" x1="50%" x2="50%" y1="0%" y2="100%">
      <stop offset="0%" stop-color="#D8E8D4"/>
      <stop offset="100%" stop-color="#B4D0AD"/>
    </linearGradient>
  </defs>
  <g fill="none" fill-rule="evenodd">
    <path fill="#3A6457" fill-rule="nonzero" d="M480.4 308.5c7.4 0 13.3-2.8 15.7-4.7v-17.6h-17.6v7.3h9.9v6c-2.1 1-5.4 1.5-8 1.5-8.6 0-13.5-5.8-13.5-13.4 0-7.6 4.8-13.3 12.2-13.3 4.7 0 7 1.6 9 3.7l5.8-5.6c-3.4-3.9-8.2-5.7-14.8-5.7a20 20 0 0 0-20.9 20.9c0 12 8.9 21 22.2 21Zm40 0c9.3 0 16.4-5 16.4-15.3v-26h-8.4v25.6c0 5.9-2.5 8.2-8 8.2-5.6 0-8.2-2.3-8.2-8.2v-25.6h-8.4v26c0 10.4 7.1 15.3 16.6 15.3Zm25-.5h8.4v-40.8h-8.4zm17 0h12.5c12.6 0 21.5-8.3 21.5-20.4 0-12-9-20.4-21.5-20.4h-12.5V308Zm8.4-7.4v-26h3.7c9 0 13.2 5.4 13.2 13s-4.2 13-13.2 13h-3.8Zm32.7 7.4h27.8v-7.4h-19.4v-5.9h16.4v-7.2h-16.4v-12.9h18.6v-7.4h-27zm35.5 0h27v-7.4h-18.5v-33.4H639zm34 0h8.4v-40.8H673zm49.7.4h.8v-41.2h-7.9v17.1c0 2.8.6 7.4.6 7.4s-2.8-3.7-4.8-5.5l-20.6-19.4h-.8V308h7.8v-17.1c0-3-.6-7.4-.6-7.4s2.8 3.6 4.9 5.5l20.6 19.4Zm9.3-.4h28v-7.4h-19.4v-5.9H757v-7.2h-16.4v-12.9H759v-7.4h-27zm47.4.5c8 0 14-4.1 14-11.7 0-7-4-10.1-11.2-13.2l-2.1-.9c-3.6-1.5-5.2-2.5-5.2-5 0-2.1 1.6-3.7 4-3.7 2.5 0 4 1 5.5 3.6l6.5-4.2c-2.8-4.8-6.6-6.7-12-6.7-7.4 0-12.3 4.8-12.3 11.1 0 6.9 4 10.1 10.1 12.7l2.1.9c3.9 1.7 6.2 2.7 6.2 5.6 0 2.4-2.3 4.1-5.8 4.1-4 0-6.4-2.2-8.2-5.1l-6.9 4c2.5 4.8 7.5 8.5 15.3 8.5Z"/>
    <g fill="url(#a)" stroke="#3A6457" transform="translate(99 36)">
      <path d="M210 7.2c3.7-2.3 5.3-2.7 7-2.9 1.8 0 3.5.3 5 1.2 1.5.9 2.7 2 5 5.6l44.7 71.5c2.2 3.6 2.7 5.2 2.8 7a9 9 0 0 1-1.1 5c-.9 1.5-2 2.7-5.7 5L70.5 222.7a14.6 14.6 0 0 1-7 2.9 10 10 0 0 1-5-1.2c-1.5-.9-2.7-2-5-5.6L9 147.4c-2.3-3.6-2.8-5.2-2.9-7 0-1.7.3-3.4 1.2-5 .9-1.5 2-2.7 5.6-5Z"/>
      <path d="M219.2 13.7c3.8-2 5.4-2.3 7.2-2.2a8 8 0 0 1 4.8 1.5c1.5 1 2.6 2.2 4.5 6L274 94.2c2 3.9 2.3 5.5 2.2 7.3 0 1.7-.5 3.4-1.5 4.8-1 1.5-2.3 2.6-6.1 4.5L61.4 216.3c-3.9 2-5.5 2.3-7.2 2.2-1.8 0-3.4-.5-4.9-1.5-1.4-1-2.5-2.2-4.5-6L6.6 135.8c-2-3.9-2.3-5.5-2.3-7.3 0-1.7.6-3.4 1.6-4.8 1-1.5 2.2-2.6 6-4.5Z"/>
      <path d="M227.7 21c4-1.6 5.6-1.8 7.4-1.6a8 8 0 0 1 4.7 2c1.3 1 2.3 2.4 4 6.4l31.5 78c1.6 4 1.8 5.7 1.6 7.5a8.6 8.6 0 0 1-2 4.6c-1.1 1.4-2.4 2.4-6.4 4L52.9 209c-4 1.6-5.7 1.8-7.4 1.6a8.6 8.6 0 0 1-4.7-2c-1.4-1-2.4-2.4-4-6.4l-31.5-78c-1.7-4-1.8-5.7-1.6-7.5.1-1.7.8-3.3 2-4.6 1-1.4 2.4-2.4 6.4-4Z"/>
    </g>
    <path fill="#3A6457" fill-rule="nonzero" d="M194.8 202.3c18.3 0 31.5-8.2 39.8-21l-15.3-10.5c-5.3 8-12.2 14-24.5 14-17.2 0-28.8-13.6-28.8-31.4 0-17.8 11.6-31 28.8-31a26 26 0 0 1 23 12.4l15-10.7c-8.5-13.3-20.8-19.4-38-19.4a48 48 0 0 0-49 48.7 48 48 0 0 0 49 48.9Zm82.6 0c18.5 0 32.8-13 32.8-31 0-18.2-14.3-31.2-32.8-31.2-18.5 0-33 13-33 31.2 0 18 14.5 31 33 31Zm0-16c-8.4 0-13.6-6.2-13.6-15 0-9 5.2-15 13.6-15 8.4 0 13.4 6 13.4 15 0 8.8-5 15-13.4 15Zm45.9 14.7H342V100h-18.8zm34.5 0h18.7V100h-18.7zm51.2-24h45.2c1.4-21-10.2-36.9-31.6-36.9-18.5 0-33 12.9-33 31 0 18.3 13.8 31.2 35 31.2 12.5 0 19.8-3.8 25.6-8.9l-10.8-11.6a26 26 0 0 1-15 4.8c-8.5 0-13.6-3.5-15.4-9.7Zm-.3-11c1.6-7.1 6.6-10.5 14-10.5s11.6 4 12.5 10.5h-26.5Zm88.9 36.3c12 0 19-4.2 24.8-10.8l-12.7-11.2c-2.8 2.8-6 5.6-12 5.6-8.6 0-13.4-6.2-13.4-14.9 0-8.4 4.8-14.4 13.3-14.4a14 14 0 0 1 11.6 6.3l13.5-10.9a29.1 29.1 0 0 0-25-11.9c-18.7 0-32.7 12.9-32.7 31 0 18.3 14 31.2 32.6 31.2Zm62.7.2a25 25 0 0 0 16.7-5.4l-7.1-13.2c-1.3.9-3.5 2.5-6.6 2.5-3 0-5-1.2-5-7.2V157h15.3v-15.6h-15.2v-31.1h-18.8v31h-8.8V157h8.8v21.6c0 18 8.7 24 20.7 24Zm37.3-71.1c6.4 0 11.9-4.9 11.9-11.9 0-6.8-5.5-11.7-12-11.7-6.4 0-12 4.9-12 11.7 0 7 5.6 12 12 12ZM588 201h19v-59.6h-19V201Zm60.7 1.3h1.8l32-61h-19.3l-8 17.8c-2.7 6-4.7 15.9-4.7 15.9s-2.1-9.8-5-15.9l-8.3-17.7h-20.9l32.4 60.9Zm59.6-25.3h45.2c1.5-21-10.2-37-31.5-37-18.5 0-33 12.9-33 31 0 18.3 13.8 31.2 35 31.2 12.6 0 19.8-3.8 25.6-8.9l-10.8-11.6a26 26 0 0 1-15 4.8c-8.5 0-13.6-3.5-15.4-9.7Zm-.3-11c1.6-7.1 6.6-10.5 14-10.5 7.5 0 11.7 4 12.5 10.5H708Zm91.9 35h19.6v-29h37.9v-17.5h-38V123h41.8v-17.2h-61.3zm97.1 1.3c8.3 0 15.2-4 18.8-11.1l-.4 9.8h18.9v-59.6h-19v31.9c0 7.5-4.1 11.9-11.7 11.9-6.7 0-10-4-10-10.7v-33.1h-18.8v34.4c0 17 9.2 26.5 22.2 26.5Zm52.1-1.3h19v-32c0-7.5 4.4-11.7 12-11.7 6.7 0 9.9 3.8 9.9 10.5V201h18.9v-34.4c0-17-9.4-26.5-22.4-26.5-8.3 0-15.3 4-19 11l.5-9.7h-18.9V201Zm99.3 1.3c9 0 15.4-3.7 18.7-10l-.4 8.7h19V100h-19v49.8c-3.8-6-9-9.7-18.6-9.7-14.4 0-26.7 12.6-26.7 31 0 18.3 12.4 31.2 27 31.2Zm5.4-16.6c-8 0-13-5.3-13-14.7 0-8.8 5-14.2 13-14.2 8.2 0 13.5 5.4 13.5 14.2 0 9.4-5.3 14.7-13.5 14.7Zm69.5 16.6c18.7 0 24.5-9 24.5-20 0-12.5-11-16.6-19.6-18.5-8.1-1.9-12-2.3-12-5.6 0-2.4 2.2-3.5 6.5-3.5 4.5 0 8.7 2 11.5 4.4l10-10.7c-4.8-5-11.8-8.3-21.6-8.3-12.8 0-23.1 5.5-23.1 18.9 0 12.5 9 17 17.2 19 9.7 2.6 13.4 2.6 13.4 5.8 0 2.5-2 3.6-8 3.6-5.7 0-10.9-2.4-15-6.3l-11 9.8c5.2 6.2 13.3 11.4 27.2 11.4Z"/>
  </g>
</svg>
